<svg width="32px" height="32px" viewBox="0 0 111.91 122.99" xmlns="http://www.w3.org/2000/svg"><g fill="#482deb"><path d="m43 .07-31.74 21.78a.87.87 0 0 0 0 .93l12.19 8.3a.34.34 0 0 0 .55 0l19.57-13.47c.18 0 .18-.19.18-.37v-16.62c0-.55-.37-.74-.75-.55z"/><path d="m111.14 75.76-42.83 29.54c-.19.18-.19.18-.19.37v16.8c0 .37.56.74.74.37l42.83-29.54c.19-.18.19-.18.19-.37v-16.8c.18-.37-.37-.55-.74-.37z"/><path d="m87.88 74.65a.34.34 0 0 0 .55 0l12.19-8.3a.54.54 0 0 0 0-.93l-31.57-21.78c-.37-.19-.74 0-.74.37v16.8c0 .18 0 .37.18.37z"/><path d="m.74 32.38c-.37-.19-.74 0-.74.37v16.8c0 .18 0 .37.18.37l42.82 29.53a.46.46 0 0 0 .73-.37v-16.8c0-.18 0-.36-.18-.36z"/></g></svg>